<svg xmlns="http://www.w3.org/2000/svg" width="53" height="50" style=""><rect id="backgroundrect" width="100%" height="100%" x="0" y="0" fill="none" stroke="none"/>

<g class="currentLayer" style=""><title>Layer 1</title><path d="M50.9766,26.5234C51.8179,26.5234 52.5,25.8413 52.5,25L52.5,13.625C52.5,12.7837 51.8179,12.1016 50.9766,12.1016C49.9146,12.1016 29.168,12.1016 28.0234,12.1016L28.0234,2.25C28.0234,1.40866 27.3413,0.72656 26.5,0.72656L10.25,0.72656C9.40866,0.72656 8.72656,1.40866 8.72656,2.25L8.72656,12.1016L2.02344,12.1016C1.18209,12.1016 0.5,12.7837 0.5,13.625L0.5,25C0.5,25.8413 1.18209,26.5234 2.02344,26.5234L8.72656,26.5234L8.72656,34.8516L2.02344,34.8516C1.18209,34.8516 0.5,35.5337 0.5,36.375L0.5,47.75C0.5,48.5913 1.18209,49.2734 2.02344,49.2734L50.9766,49.2734C51.8179,49.2734 52.5,48.5913 52.5,47.75L52.5,36.375C52.5,35.5337 51.8179,34.8516 50.9766,34.8516L44.2734,34.8516L44.2734,26.5234L50.9766,26.5234zM49.4531,23.4766C47.8232,23.4766 37.7597,23.4766 36.1484,23.4766L36.1484,15.1484L49.4531,15.1484L49.4531,23.4766zM33.1016,23.4766C31.5059,23.4766 21.5046,23.4766 19.8984,23.4766L19.8984,15.1484L33.1016,15.1484L33.1016,23.4766zM11.7734,3.77344L24.9766,3.77344L24.9766,12.1016C23.3809,12.1016 13.3796,12.1016 11.7734,12.1016L11.7734,3.77344zM3.54688,23.4766L3.54688,15.1484L16.8516,15.1484L16.8516,23.4766C15.2396,23.4766 5.17645,23.4766 3.54688,23.4766zM11.7734,26.5234L24.9766,26.5234L24.9766,34.8516C23.3809,34.8516 13.3796,34.8516 11.7734,34.8516L11.7734,26.5234zM3.54688,37.8984L16.8516,37.8984L16.8516,46.2266L3.54688,46.2266L3.54688,37.8984zM19.8984,37.8984L33.1016,37.8984L33.1016,46.2266L19.8984,46.2266L19.8984,37.8984zM49.4531,37.8984L49.4531,46.2266L36.1484,46.2266L36.1484,37.8984L49.4531,37.8984zM41.2266,34.8516C39.6309,34.8516 29.6296,34.8516 28.0234,34.8516L28.0234,26.5234L41.2266,26.5234L41.2266,34.8516z" id="svg_1" class="selected" fill-opacity="1" fill="#ff5a30"/></g></svg>