<svg>
	<symbol id="construction" viewBox="0 0 53 50" xmlns="http://www.w3.org/2000/svg">
		<g><path d="M50.9766 26.5234C51.8179 26.5234 52.5 25.8413 52.5 25V13.625C52.5 12.7837 51.8179 12.1016 50.9766 12.1016C49.9146 12.1016 29.168 12.1016 28.0234 12.1016V2.25C28.0234 1.40866 27.3413 0.726562 26.5 0.726562H10.25C9.40866 0.726562 8.72656 1.40866 8.72656 2.25V12.1016H2.02344C1.18209 12.1016 0.5 12.7837 0.5 13.625V25C0.5 25.8413 1.18209 26.5234 2.02344 26.5234H8.72656V34.8516H2.02344C1.18209 34.8516 0.5 35.5337 0.5 36.375V47.75C0.5 48.5913 1.18209 49.2734 2.02344 49.2734H50.9766C51.8179 49.2734 52.5 48.5913 52.5 47.75V36.375C52.5 35.5337 51.8179 34.8516 50.9766 34.8516H44.2734V26.5234H50.9766ZM49.4531 23.4766C47.8232 23.4766 37.7597 23.4766 36.1484 23.4766V15.1484H49.4531V23.4766ZM33.1016 23.4766C31.5059 23.4766 21.5046 23.4766 19.8984 23.4766V15.1484H33.1016V23.4766ZM11.7734 3.77344H24.9766V12.1016C23.3809 12.1016 13.3796 12.1016 11.7734 12.1016V3.77344ZM3.54688 23.4766V15.1484H16.8516V23.4766C15.2396 23.4766 5.17645 23.4766 3.54688 23.4766ZM11.7734 26.5234H24.9766V34.8516C23.3809 34.8516 13.3796 34.8516 11.7734 34.8516V26.5234ZM3.54688 37.8984H16.8516V46.2266H3.54688V37.8984ZM19.8984 37.8984H33.1016V46.2266H19.8984V37.8984ZM49.4531 37.8984V46.2266H36.1484V37.8984H49.4531ZM41.2266 34.8516C39.6309 34.8516 29.6296 34.8516 28.0234 34.8516V26.5234H41.2266V34.8516Z" /></g>
	</symbol>

	<symbol id="project" viewBox="0 0 53 52" xmlns="http://www.w3.org/2000/svg">
		<g><path d="M46.4062 3.14844C44.1552 3.14844 42.1854 4.37521 41.1303 6.19531H2.02344C1.18209 6.19531 0.5 6.87741 0.5 7.71875V47.3281C0.5 48.1695 1.18209 48.8516 2.02344 48.8516H46.4062C49.7663 48.8516 52.5 46.1179 52.5 42.7578V9.24219C52.5 5.88209 49.7663 3.14844 46.4062 3.14844ZM46.4062 45.8047C45.8103 45.8047 4.1011 45.8047 3.54688 45.8047V9.24219H40.3125V42.7578C40.3125 43.5992 40.9946 44.2812 41.8359 44.2812C42.6773 44.2812 43.3594 43.5992 43.3594 42.7578C43.3594 41.0778 44.7262 39.7109 46.4062 39.7109C48.0863 39.7109 49.4531 41.0778 49.4531 42.7578C49.4531 44.4379 48.0863 45.8047 46.4062 45.8047ZM49.4531 37.4818C48.5563 36.9619 47.5153 36.6641 46.4062 36.6641C45.2972 36.6641 44.2562 36.9619 43.3594 37.4818V9.24219C43.3594 7.56214 44.7262 6.19531 46.4062 6.19531C48.0863 6.19531 49.4531 7.56214 49.4531 9.24219V37.4818Z" />
		<path d="M35.6406 12.2891H8.21875C7.37741 12.2891 6.69531 12.9712 6.69531 13.8125V41.2344C6.69531 42.0757 7.37741 42.7578 8.21875 42.7578H23.4531C23.8572 42.7578 24.2446 42.5972 24.5303 42.3115C24.8161 42.0259 24.9766 41.6384 24.9766 41.2344V38.1875C24.9766 36.2013 26.2501 34.507 28.0234 33.8782V41.2344C28.0234 42.0757 28.7055 42.7578 29.5469 42.7578H35.6406C36.482 42.7578 37.1641 42.0757 37.1641 41.2344V13.8125C37.1641 12.9712 36.482 12.2891 35.6406 12.2891ZM34.1172 39.7109H31.0703V32.0938C31.0703 31.2524 30.3882 30.5703 29.5469 30.5703C25.3468 30.5703 21.9297 33.9874 21.9297 38.1875V39.7109H9.74219V30.5703H15.8359V35.1406C15.8359 35.982 16.518 36.6641 17.3594 36.6641C18.2007 36.6641 18.8828 35.982 18.8828 35.1406V29.0469C18.8828 28.2055 18.2007 27.5234 17.3594 27.5234H9.74219V15.3359H18.8828V21.4297H14.3125C13.4712 21.4297 12.7891 22.1118 12.7891 22.9531C12.7891 23.7945 13.4712 24.4766 14.3125 24.4766H20.4062H26.5C27.3413 24.4766 28.0234 23.7945 28.0234 22.9531C28.0234 22.1118 27.3413 21.4297 26.5 21.4297H21.9297V15.3359H34.1172V39.7109Z" /></g>
<defs>
<clipPath id="clip0">
<rect width="52" height="52" transform="translate(0.5)"/>
</clipPath>
</defs>
	</symbol>
	<symbol id="design" viewBox="0 0 53 52" xmlns="http://www.w3.org/2000/svg">
		<g><path d="M6.21875 38.0625C6.21875 36.0124 7.88742 34.3438 9.9375 34.3438C11.9876 34.3438 13.6562 36.0124 13.6562 38.0625C13.6562 40.1126 11.9876 41.7812 9.9375 41.7812C7.88742 41.7812 6.21875 40.1126 6.21875 38.0625ZM8.03125 38.0625C8.03125 39.114 8.88595 39.9688 9.9375 39.9688C10.989 39.9688 11.8438 39.114 11.8438 38.0625C11.8438 37.011 10.989 36.1562 9.9375 36.1562C8.88595 36.1562 8.03125 37.011 8.03125 38.0625Z" stroke="black" stroke-opacity="0.2"/>
		<path d="M45.4619 28.569C46.4213 27.2708 46.598 25.4603 45.7256 23.9496L40.1035 14.118C39.131 12.4335 37.0801 11.6648 35.2507 12.1538C35.6402 10.4029 34.8759 8.52441 33.2423 7.58119L23.5 1.95656C22.1087 1.15313 20.4451 1.23544 19.1657 2.02678C18.4242 0.812437 17.0865 0 15.5625 0H4.21875C1.89253 0 0 1.89253 0 4.21875C0 5.19422 0 42.6583 0 43.7812C0 46.1075 1.89253 48 4.21875 48C5.31122 48 38.4345 48 43.7812 48C46.1075 48 48 46.1075 48 43.7812V32.4375C48 30.7085 46.954 29.2197 45.4619 28.569ZM16.9688 43.7812C16.9688 44.5567 16.3379 45.1875 15.5625 45.1875H4.21875C3.44334 45.1875 2.8125 44.5567 2.8125 43.7812C2.8125 43.1388 2.8125 31.6483 2.8125 31.0312H16.9688V43.7812ZM16.9688 28.2188H2.8125V16.875H16.9688V28.2188ZM16.9688 14.0625H2.8125V4.21875C2.8125 3.44334 3.44334 2.8125 4.21875 2.8125H15.5625C16.3379 2.8125 16.9688 3.44334 16.9688 4.21875V14.0625ZM19.7812 5.5845L20.1723 4.90716C20.5602 4.23544 21.4222 4.00444 22.0938 4.39228L31.836 10.0169C32.5077 10.4048 32.7386 11.2667 32.3498 11.9403L30.7249 14.7647C30.6842 14.8248 30.6476 14.8872 30.6169 14.9524L19.7812 33.787V5.5845ZM19.7812 39.427L32.9271 16.5767L35.6452 15.0074C36.3342 14.6096 37.2793 14.8512 37.665 15.5192L43.2871 25.3507C43.676 26.0242 43.4492 26.8877 42.7688 27.2805C41.7645 27.8618 20.7702 40.0161 19.7812 40.5886V39.427ZM45.1875 43.7812C45.1875 44.5567 44.5567 45.1875 43.7812 45.1875H19.5394C19.6893 44.7647 19.7734 44.3113 19.7798 43.8393L41.9034 31.0312H43.7812C44.5567 31.0312 45.1875 31.6621 45.1875 32.4375V43.7812Z" /></g>
	</symbol>
	<symbol id="repairs" viewBox="0 0 53 52" xmlns="http://www.w3.org/2000/svg">
		<g><path d="M43.3594 4.57031C43.3594 2.05029 41.3091 0 38.7891 0H8.32031C5.80029 0 3.75 2.05029 3.75 4.57031V13.7109C3.75 16.231 5.80029 18.2813 8.32031 18.2813H38.7891C41.3091 18.2813 43.3594 16.231 43.3594 13.7109V12.1875H44.8828C45.7227 12.1875 46.4063 12.8711 46.4063 13.7109V19.8047C46.4063 20.6446 45.7227 21.3281 44.8828 21.3281H26.6016C24.0815 21.3281 22.0313 23.3784 22.0313 25.8984V30.4688H20.5078C19.6664 30.4688 18.9844 31.1507 18.9844 31.9922V38.003L17.4609 44.1952C16.4703 48.1573 19.464 52 23.5547 52C27.6473 52 30.6379 48.1533 29.65 44.2007L28.125 38.003V31.9922C28.125 31.1507 27.443 30.4688 26.6016 30.4688H25.0781V25.8984C25.0781 25.0586 25.7617 24.375 26.6016 24.375H44.8828C47.4028 24.375 49.4531 22.3247 49.4531 19.8047V13.7109C49.4531 11.1909 47.4028 9.14063 44.8828 9.14063H43.3594V4.57031ZM25.0781 33.5156V36.6641H22.0313V33.5156H25.0781ZM23.5547 48.9531C21.456 48.9531 19.9044 46.9834 20.4182 44.9287L21.702 39.7109H25.4074L26.6924 44.9343C27.2026 46.9746 25.6609 48.9531 23.5547 48.9531ZM8.32031 3.04688H38.7891C39.6289 3.04688 40.3125 3.73044 40.3125 4.57031V6.09375H35.7422C34.2616 6.09375 32.3684 6.64838 30.1761 7.29028C27.2149 8.15753 23.859 9.14063 20.5078 9.14063C17.2412 9.14063 14.9381 8.18649 12.9061 7.34503C11.3525 6.70154 9.88541 6.09375 8.32031 6.09375H6.79688V4.57031C6.79688 3.73044 7.48044 3.04688 8.32031 3.04688ZM40.3125 13.7109C40.3125 14.5508 39.6289 15.2344 38.7891 15.2344H8.32031C7.48044 15.2344 6.79688 14.5508 6.79688 13.7109V9.14063H8.32031C9.27921 9.14063 10.3654 9.59052 11.7401 10.1598C13.9209 11.0632 16.6349 12.1875 20.5078 12.1875C24.2962 12.1875 28.031 11.0933 31.0326 10.2146C32.9179 9.66232 34.6988 9.14063 35.7422 9.14063H40.3125V13.7109Z" /></g>
	</symbol>
	<symbol id="play" viewBox="0 0 19 22" xmlns="http://www.w3.org/2000/svg">
		<g><path d="M18.5 10.134C19.1667 10.5189 19.1667 11.4811 18.5 11.866L2 21.3923C1.33333 21.7772 0.499999 21.2961 0.499999 20.5263L0.5 1.47372C0.5 0.703921 1.33333 0.222794 2 0.607695L18.5 10.134Z" fill="white"/></g>
	</symbol>
	<symbol id="mute" viewBox="0 0 20 20" xmlns="http://www.w3.org/2000/svg">
		<g><path fill-rule="evenodd" clip-rule="evenodd" d="M12.0003 15.5827C12.5837 15.9994 13.3337 15.666 13.3337 14.916V11.166L10.2503 14.2493L12.0003 15.5827Z" fill="white"/>
<path fill-rule="evenodd" clip-rule="evenodd" d="M17.2503 4.41602C16.917 4.08268 16.417 4.08268 16.0837 4.41602L13.3337 7.16602V5.08268C13.3337 4.41602 12.5003 3.99935 12.0003 4.41602L9.66699 6.33268C9.33366 6.49935 9.00033 6.66602 8.58366 6.66602H6.66699C5.75033 6.66602 5.00033 7.41602 5.00033 8.33268V11.666C5.00033 12.5827 5.75033 13.3327 6.66699 13.3327H7.16699L4.41699 16.0827C4.08366 16.416 4.08366 16.916 4.41699 17.2494C4.75033 17.5827 5.25033 17.5827 5.58366 17.2494L17.2503 5.58268C17.5837 5.24935 17.5837 4.74935 17.2503 4.41602Z" fill="white"/></g>
	</symbol>
	<symbol id="facebook" viewBox="0 0 24 24" xmlns="http://www.w3.org/2000/svg">
		<g><path d="M17.563 1.005L14.786 1c-3.12 0-5.137 2.125-5.137 5.414v2.497H6.857c-.242 0-.437.2-.437.448v3.617c0 .248.196.449.437.449h2.792v9.126c0 .248.195.449.437.449h3.643a.443.443 0 00.437-.449v-9.126h3.265c.241 0 .436-.2.436-.449l.002-3.617a.456.456 0 00-.128-.317.431.431 0 00-.31-.131h-3.265V6.794c0-1.017.236-1.533 1.525-1.533h1.871c.241 0 .437-.202.437-.45V1.454a.443.443 0 00-.436-.448z"/></g>
	</symbol>
	<symbol id="comments" viewBox="0 0 16 17" xmlns="http://www.w3.org/2000/svg">
		<g><path fill-rule="evenodd" clip-rule="evenodd" d="M14.6153 7.54557C14.5204 8.20339 14.2954 8.82861 13.9619 9.40355C13.9869 9.5459 13.9997 9.68979 13.9997 9.83429C13.9997 10.3362 13.8543 10.8165 13.5849 11.2529C13.4504 11.4707 13.4158 11.726 13.4025 11.8946C13.3873 12.0879 13.3924 12.2994 13.4062 12.5025C13.4217 12.7304 13.4497 12.9697 13.4818 13.1954C13.2216 13.1196 12.9395 13.0434 12.6704 12.9826C12.4465 12.9321 12.2174 12.8891 12.0099 12.8676C11.8289 12.849 11.5674 12.8345 11.3335 12.9101C10.8221 13.0754 10.2594 13.1676 9.66636 13.1676C8.96109 13.1676 8.31335 13.0424 7.74559 12.825C7.60903 12.8312 7.47147 12.8343 7.33301 12.8343C6.52993 12.8343 5.75701 12.7287 5.03385 12.5335C6.08516 13.7494 7.81828 14.501 9.66636 14.501C10.3883 14.501 11.0812 14.3901 11.7198 14.1864C11.7209 14.1865 11.723 14.1864 11.726 14.1864C11.7424 14.186 11.7879 14.1851 11.8729 14.1939C12.0067 14.2077 12.1786 14.2385 12.377 14.2833C12.7719 14.3724 13.2157 14.5038 13.5615 14.6136C14.2949 14.8464 15.0056 14.2064 14.8745 13.4621C14.8181 13.1418 14.7595 12.7508 14.7365 12.4122C14.7249 12.2419 14.7236 12.1021 14.7317 11.9995C14.7351 11.957 14.7394 11.9304 14.7421 11.9162C15.1172 11.2949 15.333 10.5874 15.333 9.83429C15.333 8.98526 15.0693 8.20995 14.6153 7.54557Z" />
		<path fill-rule="evenodd" clip-rule="evenodd" d="M3.73109 4.29943C2.83245 4.98662 2.33306 5.88871 2.33306 6.83398C2.33306 7.30534 2.45577 7.75932 2.68599 8.18147C2.77367 8.34226 2.79854 8.50812 2.80744 8.6204C2.81714 8.74283 2.8123 8.86867 2.80166 8.98633C2.78034 9.22191 2.72949 9.48884 2.66849 9.75174C2.59715 10.0593 2.50572 10.3872 2.41296 10.6952C2.76512 10.5672 3.15003 10.436 3.51493 10.3296C3.80985 10.2435 4.10767 10.1689 4.37274 10.1269C4.60108 10.0908 4.93243 10.0554 5.2177 10.1541C5.85792 10.3756 6.57411 10.5007 7.33306 10.5007C8.76451 10.5007 10.0358 10.0562 10.935 9.36854C11.8337 8.68135 12.3331 7.77926 12.3331 6.83398C12.3331 5.88871 11.8337 4.98662 10.935 4.29943C10.0358 3.61176 8.76451 3.16732 7.33306 3.16732C5.90162 3.16732 4.63034 3.61176 3.73109 4.29943ZM2.92116 3.24028C4.07283 2.35959 5.63489 1.83398 7.33306 1.83398C9.03123 1.83398 10.5933 2.35959 11.745 3.24028C12.8973 4.12145 13.6664 5.38602 13.6664 6.83398C13.6664 8.28194 12.8973 9.54652 11.745 10.4277C10.5933 11.3084 9.03123 11.834 7.33306 11.834C6.43769 11.834 5.58244 11.688 4.80591 11.4224C4.80513 11.4246 4.74215 11.4184 4.58098 11.4439C4.39521 11.4733 4.15809 11.5308 3.88836 11.6095C3.35138 11.7662 2.74835 11.9878 2.28902 12.1666C1.49327 12.4763 0.682633 11.712 0.95074 10.8979C1.09284 10.4665 1.26043 9.92121 1.36966 9.45041C1.42468 9.21324 1.46039 9.01384 1.47375 8.86618C1.47839 8.81492 1.47958 8.77756 1.47932 8.7523C1.17246 8.16592 0.99973 7.51748 0.99973 6.83398C0.99973 5.38602 1.76887 4.12145 2.92116 3.24028Z" /></g>
	</symbol>
	<symbol id="facebook" viewBox="0 0 24 24" xmlns="http://www.w3.org/2000/svg">
		<g><path d="M17.5628 1.00458L14.7856 1C11.6654 1 9.64903 3.12509 9.64903 6.41423V8.91055H6.85662C6.61532 8.91055 6.41992 9.1115 6.41992 9.35937V12.9763C6.41992 13.2241 6.61554 13.4249 6.85662 13.4249H9.64903V22.5514C9.64903 22.7993 9.84443 23 10.0857 23H13.729C13.9703 23 14.1657 22.799 14.1657 22.5514V13.4249H17.4307C17.672 13.4249 17.8674 13.2241 17.8674 12.9763L17.8688 9.35937C17.8688 9.24036 17.8226 9.12638 17.7409 9.04215C17.6591 8.95793 17.5477 8.91055 17.4318 8.91055H14.1657V6.79439C14.1657 5.77728 14.4017 5.26094 15.6915 5.26094L17.5624 5.26025C17.8035 5.26025 17.9989 5.0593 17.9989 4.81166V1.45317C17.9989 1.20576 17.8037 1.00504 17.5628 1.00458Z" /></g>
	</symbol>
	<symbol id="mess" viewBox="0 0 24 24" xmlns="http://www.w3.org/2000/svg">
		<g><path d="M12 2C6.4775 2 2 6.145 2 11.2587C2 14.1725 3.45375 16.7712 5.72625 18.4688V22L9.13125 20.1313C10.04 20.3825 11.0025 20.5187 12 20.5187C17.5225 20.5187 22 16.3737 22 11.26C22 6.14625 17.5225 2 12 2ZM12.9937 14.4688L10.4475 11.7525L5.47875 14.4688L10.945 8.66625L13.5538 11.3825L18.46 8.66625L12.9937 14.4688Z" /></g>
	</symbol>
	<symbol id="twitter" viewBox="0 0 24 24" xmlns="http://www.w3.org/2000/svg">
		<g><path d="M22.5 5.77233C21.7271 6.10027 20.8978 6.32267 20.0264 6.42196C20.9161 5.91181 21.5972 5.10263 21.92 4.1414C21.0854 4.61383 20.1642 4.95688 19.1826 5.14285C18.3966 4.33994 17.2785 3.83984 16.0384 3.83984C13.6593 3.83984 11.7303 5.68691 11.7303 7.9637C11.7303 8.2866 11.7683 8.60199 11.8418 8.90357C8.26201 8.73141 5.08768 7.08917 2.96314 4.59372C2.59176 5.20189 2.38049 5.91053 2.38049 6.66697C2.38049 8.09814 3.14161 9.36093 4.2964 10.0997C3.5904 10.0771 2.92639 9.89116 2.34508 9.58205V9.63357C2.34508 11.6314 3.83056 13.2988 5.80024 13.6783C5.43936 13.7713 5.05882 13.8228 4.66514 13.8228C4.38696 13.8228 4.11794 13.7964 3.85417 13.7461C4.40267 15.3859 5.99315 16.5783 7.87756 16.611C6.40388 17.7167 4.54573 18.3739 2.52749 18.3739C2.17976 18.3739 1.83724 18.3537 1.5 18.3173C3.40671 19.4896 5.67036 20.1732 8.10327 20.1732C16.028 20.1732 20.3597 13.8881 20.3597 8.43741L20.3453 7.90341C21.1917 7.32537 21.9239 6.59912 22.5 5.77233Z" /></g>
	</symbol>
	<symbol id="whats" viewBox="0 0 24 24" xmlns="http://www.w3.org/2000/svg">
		<g><path d="M22 11.7424C22 17.1231 17.6047 21.4849 12.1818 21.4849C10.4602 21.4849 8.84289 21.0449 7.43578 20.2727L2 22L3.77222 16.7729C2.87822 15.3049 2.36333 13.5831 2.36333 11.7424C2.36333 6.36178 6.75911 2 12.1818 2C17.6051 2 22 6.36178 22 11.7424ZM12.1818 3.55156C7.62978 3.55156 3.92711 7.226 3.92711 11.7424C3.92711 13.5347 4.51133 15.1944 5.49956 16.5447L4.46822 19.5867L7.64044 18.5784C8.94378 19.4342 10.5051 19.9333 12.182 19.9333C16.7333 19.9333 20.4367 16.2593 20.4367 11.7429C20.4367 7.22644 16.7336 3.55156 12.1818 3.55156ZM17.1398 13.9862C17.0791 13.8869 16.9189 13.8269 16.6784 13.7076C16.4376 13.5882 15.254 13.0102 15.034 12.9309C14.8133 12.8513 14.6524 12.8113 14.4922 13.0502C14.332 13.2893 13.8707 13.8269 13.73 13.9862C13.5896 14.146 13.4493 14.166 13.2084 14.0464C12.968 13.9271 12.1927 13.6747 11.2733 12.8613C10.558 12.2284 10.0749 11.4471 9.93444 11.2078C9.79422 10.9689 9.91978 10.8398 10.04 10.7209C10.1484 10.6138 10.2809 10.442 10.4011 10.3027C10.5218 10.1631 10.5618 10.0638 10.6416 9.90422C10.7222 9.74489 10.682 9.60556 10.6216 9.48578C10.5616 9.36644 10.0798 8.19133 9.87933 7.71311C9.67889 7.23533 9.47867 7.31489 9.338 7.31489C9.19778 7.31489 9.03711 7.29489 8.87667 7.29489C8.71622 7.29489 8.45533 7.35467 8.23467 7.59356C8.01422 7.83267 7.39267 8.41044 7.39267 9.58533C7.39267 10.7604 8.25467 11.8958 8.37533 12.0549C8.49556 12.214 10.0398 14.7038 12.4864 15.66C14.9333 16.6158 14.9333 16.2969 15.3747 16.2569C15.8156 16.2171 16.7982 15.6793 16.9996 15.122C17.1996 14.5638 17.1996 14.0858 17.1398 13.9862Z" /></g>
	</symbol>
	<symbol id="youtube" viewBox="0 0 24 24" xmlns="http://www.w3.org/2000/svg">
		<g><path fill-rule="evenodd" clip-rule="evenodd" d="M21.3903 4.11358C22.4182 4.39044 23.2288 5.20086 23.5055 6.22899C24.0197 8.10691 23.9999 12.0213 23.9999 12.0213C23.9999 12.0213 23.9999 15.9158 23.5057 17.7939C23.2288 18.8218 22.4184 19.6324 21.3903 19.9091C19.5122 20.4035 12 20.4035 12 20.4035C12 20.4035 4.50731 20.4035 2.60961 19.8895C1.58148 19.6127 0.771054 18.802 0.4942 17.7741C0 15.9158 0 12.0015 0 12.0015C0 12.0015 0 8.10691 0.4942 6.22899C0.770871 5.20104 1.60125 4.37066 2.60943 4.09399C4.48753 3.59961 11.9998 3.59961 11.9998 3.59961C11.9998 3.59961 19.5122 3.59961 21.3903 4.11358ZM15.8549 12.0016L9.60788 15.5996V8.40355L15.8549 12.0016Z" /></g>
	</symbol>
	<!-- <symbol id="play" viewBox="0 0 19 22" xmlns="http://www.w3.org/2000/svg">
		<g><path d="M18.5 10.134C19.1667 10.5189 19.1667 11.4811 18.5 11.866L2 21.3923C1.33333 21.7772 0.499999 21.2961 0.499999 20.5263L0.5 1.47372C0.5 0.703921 1.33333 0.222794 2 0.607695L18.5 10.134Z" fill="white"/></g>
	</symbol> -->


</svg>